<svg xmlns="http://www.w3.org/2000/svg" xmlns:xlink="http://www.w3.org/1999/xlink" width="120" height="100" viewBox="20 152 120 100" fill="none"><rect width="120" height="100" rx="13" transform="matrix(-1 0 0 1 140 152)" fill="#EAF2F4"/>
<path d="M92.4284 167H79.7114V181.631H92.4284V167Z" fill="#4589FF"/>
<path d="M79.7114 193.53H92.4285V214.165C92.4866 219.13 91.0735 224 88.3688 228.157C85.6982 232.195 80.5429 237 71.0051 237C60.6162 237 54.561 232.087 51.2936 229.395L59.3152 219.5C62.5042 222.104 65.5759 224.246 71.054 224.246C75.2018 224.246 76.855 222.556 77.8234 221.082C79.14 219.035 79.821 216.641 79.7799 214.204L79.7114 193.53Z" fill="#4589FF"/>
<path d="M73.2256 184.294H60.5085V197.067H73.2256V184.294Z" fill="#4589FF"/>
<path d="M99.0903 231.006C99.0903 233.728 97.711 235.192 95.7839 235.192C93.8568 235.192 92.5948 233.453 92.5948 231.144C92.5948 228.835 93.8959 227.007 95.8915 227.007C97.8871 227.007 99.0903 228.805 99.0903 231.006ZM94.072 231.114C94.072 232.755 94.7274 233.964 95.8524 233.964C96.9773 233.964 97.6132 232.686 97.6132 231.016C97.6132 229.552 97.0263 228.176 95.8524 228.176C94.6785 228.176 94.072 229.503 94.072 231.114Z" fill="#4589FF"/>
<path d="M101.614 227.125V235.064H100.206V227.125H101.614Z" fill="#4589FF"/>
<path d="M103.14 235.064V227.125H104.705L106.388 230.397C106.821 231.253 107.207 232.132 107.542 233.03C107.454 232.048 107.415 230.918 107.415 229.66V227.125H108.706V235.064H107.249L105.547 231.724C105.096 230.846 104.694 229.944 104.343 229.021C104.343 230.004 104.412 231.114 104.412 232.48V235.055L103.14 235.064Z" fill="#4589FF"/>
<defs/></svg>